<svg width="63" height="65" viewBox="0 0 63 65" fill="none" xmlns="http://www.w3.org/2000/svg">
<path fill-rule="evenodd" clip-rule="evenodd" d="M35.7615 26.5902C39.2993 22.1851 43.3008 19.9508 48.3599 20.2205C56.5908 20.6586 62.3838 26.8636 62.8002 36.5507C63.1659 45.0827 62.9065 53.6447 62.9626 62.1916C62.9764 64.2426 62.0895 65.009 60.2718 64.9595C57.837 64.8928 55.3933 64.8321 52.9643 64.9856C50.5546 65.138 49.6382 64.0907 49.6795 61.4988C49.7745 55.6961 49.7159 49.8892 49.7056 44.0845C49.7021 42.5026 49.7203 40.9132 49.6062 39.3387C49.2542 34.4656 46.6137 31.5246 42.6988 31.5577C38.6752 31.5912 35.4199 35.093 35.349 39.7518C35.2452 46.6103 35.3077 53.4714 35.2944 60.3315C35.285 64.9248 35.2816 64.9248 31.0936 64.9547C22.0373 65.0175 22.0408 65.0175 22.0373 55.2084C22.0339 45.1824 22.1013 35.1537 21.9665 25.1298C21.9276 22.2272 22.8239 21.0647 25.4964 21.336C27.0419 21.4933 28.6125 21.3536 30.1727 21.3605C34.8278 21.3829 34.8278 21.3856 35.7615 26.5902ZM0.945688 42.9753C0.945688 36.9622 1.04757 30.9463 0.900899 24.938C0.83347 22.128 1.82424 21.1553 4.32553 21.3222C6.75201 21.4831 9.1962 21.4128 11.6296 21.3568C13.4576 21.3158 14.2839 22.1216 14.277 24.1657C14.2337 36.8246 14.2278 49.482 14.2505 62.141C14.2539 64.1674 13.4448 65.0026 11.6045 64.9605C8.9757 64.8998 6.34202 64.8774 3.71522 64.9717C1.69873 65.0447 0.941258 64.1115 0.962914 61.9625C1.0269 55.6338 0.985555 49.3035 0.985555 42.9748C0.973251 42.9753 0.959469 42.9753 0.945688 42.9753ZM7.47257 15.0814C3.19646 15.0617 0.0292375 11.8728 0.000198496 7.55776C-0.0293327 3.31625 3.23977 0.00319966 7.45534 1.73844e-06C12.0425 -0.0026632 15.1492 3.05882 15.131 7.56309C15.1113 12.15 12.104 15.1011 7.47257 15.0814Z" fill="#ECA11F"/>
</svg>
