<svg width="72" height="65" viewBox="0 0 72 65" fill="none" xmlns="http://www.w3.org/2000/svg">
<path d="M71.55 0.40625C70.65 0 69.75 0 68.85 0L1.35 24.375C0.45 24.7813 0 25.5937 0 26.4062C0 27.2188 0.45 28.0312 1.35 28.4375L22.5 37.7813V50.7812C22.5 51.5938 22.95 52 23.4 52.4062C23.85 52.8125 24.3 52.8125 24.75 52.8125C25.2 52.8125 25.65 52.8125 25.65 52.4062L32.85 49.1563L40.95 63.7812C40.95 64.5937 41.85 65 42.75 65C43.65 65 44.55 64.5937 44.55 63.7812L53.55 43.4687C54 42.25 53.55 41.4375 52.2 41.0313C50.85 40.625 49.95 41.0312 49.5 42.25L42.3 58.5L31.95 39L63.45 10.5625L52.65 34.9375C52.2 36.1563 52.65 36.9687 54 37.375C55.35 37.7812 56.25 37.375 56.7 36.1562L72 2.84375C72 2.03125 72 1.21875 71.55 0.40625ZM60.3 7.71875L28.8 36.1562L7.65 26.8125L60.3 7.71875ZM27 47.5312V39.8125L27.45 40.2187L30.6 45.9063L27 47.5312Z" fill="#ECA11F"/>
</svg>
